<svg height="512pt" viewBox="0 -117 512 512" width="512pt" xmlns="http://www.w3.org/2000/svg"><path d="m242.890625 209.480469c-26.542969-47.753907-67.53125-84.519531-112.457031-100.867188l-70.472656-25.648437 10.253906-28.1875 70.472656 25.652344c51.605469 18.777343 98.421875 60.511718 128.421875 114.492187zm0 0" fill="#f9d8b4"/><path d="m273.195312 209.480469-26.21875-14.558594c30-53.980469 76.816407-95.714844 128.421876-114.492187l70.472656-25.652344 10.257812 28.1875-70.476562 25.648437c-44.925782 16.347657-85.914063 53.113281-112.457032 100.867188zm0 0" fill="#f9d8b4"/><path d="m403.597656 23.101562-57.597656 48.300782c-36.597656 30.597656-62.402344 79.199218-71.101562 133.199218l-16.796876-2.703124-2.101562.300781-14.699219 2.402343c-8.703125-54-34.800781-102.601562-71.402343-133.199218l-57.300782-48.300782 19.203125-23.101562 57.597657 48.300781c30.300781 25.5 51.902343 61.5 66.601562 102.300781 14.699219-40.800781 40.496094-76.800781 70.800781-102.300781l57.300781-48.300781zm0 0" fill="#faecd8"/><path d="m403.597656 23.101562-57.597656 48.300782c-36.597656 30.597656-62.402344 79.199218-71.101562 133.199218l-16.796876-2.703124-2.101562.300781v-51.597657c14.699219-40.800781 40.5-76.800781 70.800781-102.300781l57.300781-48.300781zm0 0" fill="#f9d8b4"/><path d="m481 127.199219v75h-105l-120 60-115.199219-60h-109.800781v-75h75c51 0 105 24.601562 150 60 45-35.398438 99-60 150-60zm0 0" fill="#f4ce9f"/><path d="m481 127.199219v75h-105l-120 60v-75c45-35.398438 99-60 150-60zm0 0" fill="#f1c992"/><path d="m512 187.199219v30h-106c-30 0-59.398438 12.300781-90 37.800781-17.101562 14.398438-38.402344 22.199219-60 22.199219s-42.898438-7.796875-60-22.199219c-30.601562-25.5-60-37.800781-90-37.800781h-106v-30h106c36.597656 0 73.5 15 109.199219 44.703125 12 9.898437 26.402343 14.699218 40.800781 14.699218s28.800781-4.800781 40.800781-14.699218c35.699219-29.703125 72.601563-44.703125 109.199219-44.703125zm0 0" fill="#804231"/><path d="m512 187.199219v30h-106c-30 0-59.398438 12.300781-90 37.800781-17.101562 14.398438-38.402344 22.199219-60 22.199219v-30.597657c14.398438 0 28.800781-4.800781 40.800781-14.703124 35.699219-29.699219 72.601563-44.699219 109.199219-44.699219zm0 0" fill="#663325"/></svg>